<svg width="82" height="76" viewBox="0 0 82 76" fill="none" xmlns="http://www.w3.org/2000/svg">
<rect x="0.5" y="0.5" width="80.4558" height="75" rx="9.5" fill="#0E0E0F" fill-opacity="0.96" stroke="#2E2E32"/>
<rect width="81.4558" height="76" rx="10" fill="url(#paint0_radial_80_153)" fill-opacity="0.24"/>
<rect x="11.1577" y="14.9004" width="58.379" height="46.2" rx="9.5" fill="#181818" stroke="#232325"/>
<rect x="19.25" y="26.25" width="37.5" height="22.5" rx="4.75" fill="#262626" stroke="#3C3C3C" stroke-width="0.5"/>
<g clip-path="url(#clip0_80_153)">
<path d="M27.5 37.8889C26.25 37.8889 25.1875 37.6495 24.3125 37.1708C23.4375 36.6921 23 36.1167 23 35.4444C23 34.7722 23.4375 34.1968 24.3125 33.7181C25.1875 33.2394 26.25 33 27.5 33C28.75 33 29.8125 33.2394 30.6875 33.7181C31.5625 34.1968 32 34.7722 32 35.4444C32 36.1167 31.5625 36.6921 30.6875 37.1708C29.8125 37.6495 28.75 37.8889 27.5 37.8889ZM27.5 40.9444C26.25 40.9444 25.1875 40.7051 24.3125 40.2264C23.4375 39.7477 23 39.1722 23 38.5V36.9722C23 37.4204 23.1708 37.7999 23.5125 38.1107C23.8542 38.4212 24.2625 38.6731 24.7375 38.8667C25.2125 39.0602 25.7063 39.2001 26.219 39.2865C26.7313 39.3733 27.1583 39.4167 27.5 39.4167C27.8417 39.4167 28.2687 39.3733 28.781 39.2865C29.2937 39.2001 29.7875 39.0602 30.2625 38.8667C30.7375 38.6731 31.1458 38.4212 31.4875 38.1107C31.8292 37.7999 32 37.4204 32 36.9722V38.5C32 39.1722 31.5625 39.7477 30.6875 40.2264C29.8125 40.7051 28.75 40.9444 27.5 40.9444ZM27.5 44C26.25 44 25.1875 43.7606 24.3125 43.2819C23.4375 42.8032 23 42.2278 23 41.5556V40.0278C23 40.4759 23.1708 40.8554 23.5125 41.1663C23.8542 41.4767 24.2625 41.7287 24.7375 41.9222C25.2125 42.1157 25.7063 42.2559 26.219 42.3427C26.7313 42.429 27.1583 42.4722 27.5 42.4722C27.8417 42.4722 28.2687 42.429 28.781 42.3427C29.2937 42.2559 29.7875 42.1157 30.2625 41.9222C30.7375 41.7287 31.1458 41.4767 31.4875 41.1663C31.8292 40.8554 32 40.4759 32 40.0278V41.5556C32 42.2278 31.5625 42.8032 30.6875 43.2819C29.8125 43.7606 28.75 44 27.5 44Z" fill="#CCEDFF"/>
</g>
<line x1="35.05" y1="30" x2="35.05" y2="46" stroke="#CCEDFF" stroke-width="0.1"/>
<line x1="41.05" y1="30" x2="41.05" y2="46" stroke="#CCEDFF" stroke-width="0.1"/>
<line x1="47.05" y1="30" x2="47.05" y2="46" stroke="#CCEDFF" stroke-width="0.1"/>
<line x1="53.05" y1="30" x2="53.05" y2="46" stroke="#CCEDFF" stroke-width="0.1"/>
<line x1="35" y1="29.95" x2="53" y2="29.95" stroke="#CCEDFF" stroke-width="0.1"/>
<line x1="35" y1="33.95" x2="53" y2="33.95" stroke="#CCEDFF" stroke-width="0.1"/>
<line x1="35" y1="37.95" x2="53" y2="37.95" stroke="#CCEDFF" stroke-width="0.1"/>
<line x1="35" y1="41.95" x2="53" y2="41.95" stroke="#CCEDFF" stroke-width="0.1"/>
<line x1="35" y1="45.95" x2="53" y2="45.95" stroke="#CCEDFF" stroke-width="0.1"/>
<defs>
<radialGradient id="paint0_radial_80_153" cx="0" cy="0" r="1" gradientUnits="userSpaceOnUse" gradientTransform="translate(40.3473) rotate(90) scale(31.6 33.8685)">
<stop stop-color="#878787"/>
<stop offset="1" stop-color="#212121"/>
</radialGradient>
<clipPath id="clip0_80_153">
<rect width="9" height="11" fill="white" transform="translate(23 33)"/>
</clipPath>
</defs>
</svg>
