<svg width="82" height="76" viewBox="0 0 82 76" fill="none" xmlns="http://www.w3.org/2000/svg">
<rect x="0.5" y="0.5" width="80.4558" height="75" rx="9.5" fill="#0E0E0F" fill-opacity="0.96" stroke="#2E2E32"/>
<rect width="81.4558" height="76" rx="10" fill="url(#paint0_radial_82_43)" fill-opacity="0.24"/>
<rect x="11.5" y="14.9004" width="58.379" height="46.2" rx="9.5" fill="#181818" stroke="#232325"/>
<rect x="20.4423" y="23.1" width="40.8" height="6.2" rx="0.9" fill="#D9D9D9" fill-opacity="0.12" stroke="white" stroke-width="0.2"/>
<rect x="50.3423" y="25" width="9" height="3" rx="1" fill="url(#paint1_linear_82_43)"/>
<rect x="14.4423" y="36.1" width="26.4444" height="6.2" rx="0.9" fill="#2F2F2F" stroke="white" stroke-width="0.2"/>
<ellipse cx="17.3872" cy="39.2004" rx="0.761269" ry="0.8" fill="#CCEDFF"/>
<ellipse cx="22.7161" cy="39.2004" rx="0.761269" ry="0.8" fill="#CCEDFF"/>
<ellipse cx="28.045" cy="39.2004" rx="0.761269" ry="0.8" fill="#CCEDFF"/>
<ellipse cx="33.3738" cy="39.2004" rx="0.761269" ry="0.8" fill="#CCEDFF"/>
<ellipse cx="38.7027" cy="39.2004" rx="0.761269" ry="0.8" fill="#CCEDFF"/>
<rect x="11.3423" y="14" width="59" height="48" rx="10" fill="url(#paint2_radial_82_43)" fill-opacity="0.24"/>
<rect x="42" y="45" width="22" height="12" rx="2" fill="url(#paint3_linear_82_43)"/>
<g clip-path="url(#clip0_82_43)">
<path d="M46 49C46.5525 49 47 48.5525 47 48C47 47.4475 46.5525 47 46 47C45.4475 47 45 47.4475 45 48C45 48.5525 45.4475 49 46 49ZM46 49.5C45.3325 49.5 44 49.835 44 50.5V50.75C44 50.8875 44.1125 51 44.25 51H47.75C47.8875 51 48 50.8875 48 50.75V50.5C48 49.835 46.6675 49.5 46 49.5Z" fill="black"/>
</g>
<rect x="50" y="48" width="11" height="2" fill="#262626"/>
<rect x="44" y="52" width="17" height="2" rx="1" fill="#262626"/>
<defs>
<radialGradient id="paint0_radial_82_43" cx="0" cy="0" r="1" gradientUnits="userSpaceOnUse" gradientTransform="translate(40.3473) rotate(90) scale(31.6 33.8685)">
<stop stop-color="#878787"/>
<stop offset="1" stop-color="#212121"/>
</radialGradient>
<linearGradient id="paint1_linear_82_43" x1="50.7514" y1="25.25" x2="56.2207" y2="30.4314" gradientUnits="userSpaceOnUse">
<stop stop-color="#7DD1FF" stop-opacity="0.42"/>
<stop offset="1" stop-color="#0CA9FF" stop-opacity="0.38"/>
</linearGradient>
<radialGradient id="paint2_radial_82_43" cx="0" cy="0" r="1" gradientUnits="userSpaceOnUse" gradientTransform="translate(40.5666 14) rotate(90) scale(19.9579 24.5316)">
<stop stop-color="#878787"/>
<stop offset="1" stop-color="#212121"/>
</radialGradient>
<linearGradient id="paint3_linear_82_43" x1="43" y1="46" x2="62" y2="57" gradientUnits="userSpaceOnUse">
<stop stop-color="#7DD1FF" stop-opacity="0.42"/>
<stop offset="1" stop-color="#0CA9FF" stop-opacity="0.38"/>
</linearGradient>
<clipPath id="clip0_82_43">
<rect width="6" height="6" fill="white" transform="translate(43 46)"/>
</clipPath>
</defs>
</svg>
