<svg width="82" height="76" viewBox="0 0 82 76" fill="none" xmlns="http://www.w3.org/2000/svg">
<rect x="0.5" y="0.5" width="80.4558" height="75" rx="9.5" fill="#0E0E0F" fill-opacity="0.96" stroke="#2E2E32"/>
<rect width="81.4558" height="76" rx="10" fill="url(#paint0_radial_80_58)" fill-opacity="0.24"/>
<rect x="11.5" y="14.5" width="58.379" height="46.2" rx="9.5" fill="#181818" stroke="#232325"/>
<path d="M27.3334 41.4997C27.3334 40.5963 25.8072 39.833 24.0001 39.833C22.193 39.833 20.6667 40.5963 20.6667 41.4997V42.333C20.6667 43.2363 22.193 43.9997 24.0001 43.9997C25.8072 43.9997 27.3334 43.2363 27.3334 42.333V41.4997ZM24.0001 46.9163C22.193 46.9163 20.6667 46.153 20.6667 45.2497V46.4997C20.6667 47.403 22.193 48.1663 24.0001 48.1663C25.8072 48.1663 27.3334 47.403 27.3334 46.4997V45.2497C27.3334 46.153 25.8072 46.9163 24.0001 46.9163Z" fill="url(#paint1_linear_80_58)"/>
<path d="M27.3334 43.167C27.3334 44.0703 25.8072 44.8337 24.0001 44.8337C22.193 44.8337 20.6667 44.0703 20.6667 43.167V44.417C20.6667 45.3203 22.193 46.0837 24.0001 46.0837C25.8072 46.0837 27.3334 45.3203 27.3334 44.417V43.167Z" fill="url(#paint2_linear_80_58)"/>
<path d="M24.0235 39C24.0235 39 23.9706 30.0616 24.0235 28L36 28.0007" stroke="#38383C" stroke-width="0.5"/>
<path d="M46.0748 28.0208C46.0748 28.0208 55.014 28.039 57.0753 28.1L57.0758 39" stroke="#38383C" stroke-width="0.5"/>
<rect x="51" y="40" width="11" height="7" rx="1" fill="url(#paint3_linear_80_58)"/>
<g clip-path="url(#clip0_80_58)">
<path d="M52.9999 41.9997C53.1841 41.9997 53.3333 41.8505 53.3333 41.6663C53.3333 41.4822 53.1841 41.333 52.9999 41.333C52.8158 41.333 52.6666 41.4822 52.6666 41.6663C52.6666 41.8505 52.8158 41.9997 52.9999 41.9997ZM52.9999 42.1663C52.7774 42.1663 52.3333 42.278 52.3333 42.4997V42.583C52.3333 42.6288 52.3708 42.6663 52.4166 42.6663H53.5833C53.6291 42.6663 53.6666 42.6288 53.6666 42.583V42.4997C53.6666 42.278 53.2224 42.1663 52.9999 42.1663Z" fill="black"/>
</g>
<rect x="55" y="42" width="4" height="1" fill="#262626"/>
<rect x="52" y="44.083" width="8.5" height="1.16667" rx="0.583333" fill="#262626"/>
<path d="M36.6667 25.625C36.6667 25.4187 36.8542 25.25 37.0833 25.25H43.75C43.9792 25.25 44.1667 25.0813 44.1667 24.875C44.1667 24.6687 43.9792 24.5 43.75 24.5H36.6667C36.2083 24.5 35.8333 24.8375 35.8333 25.25V29.375H35.625C35.2792 29.375 35 29.6263 35 29.9375C35 30.2487 35.2792 30.5 35.625 30.5H40.2083C40.5542 30.5 40.8333 30.2487 40.8333 29.9375C40.8333 29.6263 40.5542 29.375 40.2083 29.375H36.6667V25.625ZM44.5833 26H42.0833C41.8542 26 41.6667 26.1687 41.6667 26.375V30.125C41.6667 30.3313 41.8542 30.5 42.0833 30.5H44.5833C44.8125 30.5 45 30.3313 45 30.125V26.375C45 26.1687 44.8125 26 44.5833 26ZM44.1667 29.375H42.5V26.75H44.1667V29.375Z" fill="#797982"/>
<g clip-path="url(#clip1_80_58)">
<path d="M43.0063 42.125H36.125C35.7812 42.125 35.5 42.2937 35.5 42.5C35.5 42.7062 35.7812 42.875 36.125 42.875H43.0063V43.5462C43.0063 43.715 43.3438 43.7975 43.5375 43.6775L45.275 42.6312C45.3937 42.5562 45.3937 42.44 45.275 42.365L43.5375 41.3187C43.3438 41.1987 43.0063 41.285 43.0063 41.45V42.125Z" fill="url(#paint4_linear_80_58)"/>
</g>
<g clip-path="url(#clip2_80_58)">
<path d="M37.9937 45.875H44.875C45.2188 45.875 45.5 45.7063 45.5 45.5C45.5 45.2938 45.2188 45.125 44.875 45.125H37.9937V44.4538C37.9937 44.285 37.6562 44.2025 37.4625 44.3225L35.725 45.3688C35.6063 45.4438 35.6063 45.56 35.725 45.635L37.4625 46.6813C37.6562 46.8013 37.9937 46.715 37.9937 46.55V45.875Z" fill="url(#paint5_linear_80_58)"/>
</g>
<defs>
<radialGradient id="paint0_radial_80_58" cx="0" cy="0" r="1" gradientUnits="userSpaceOnUse" gradientTransform="translate(40.3473) rotate(90) scale(31.6 33.8685)">
<stop stop-color="#878787"/>
<stop offset="1" stop-color="#212121"/>
</radialGradient>
<linearGradient id="paint1_linear_80_58" x1="24.0001" y1="39.833" x2="24.0001" y2="48.1663" gradientUnits="userSpaceOnUse">
<stop stop-color="#CCEDF7" stop-opacity="0.47"/>
<stop offset="1" stop-color="#0CA9FF" stop-opacity="0.38"/>
</linearGradient>
<linearGradient id="paint2_linear_80_58" x1="24.0001" y1="43.167" x2="24.0001" y2="46.0837" gradientUnits="userSpaceOnUse">
<stop stop-color="#CCEDF7" stop-opacity="0.47"/>
<stop offset="1" stop-color="#0CA9FF" stop-opacity="0.38"/>
</linearGradient>
<linearGradient id="paint3_linear_80_58" x1="51.5" y1="40.5833" x2="61.6779" y2="45.634" gradientUnits="userSpaceOnUse">
<stop stop-color="#7DD1FF" stop-opacity="0.42"/>
<stop offset="1" stop-color="#0CA9FF" stop-opacity="0.38"/>
</linearGradient>
<linearGradient id="paint4_linear_80_58" x1="40.432" y1="41.2627" x2="40.432" y2="43.7343" gradientUnits="userSpaceOnUse">
<stop stop-color="#7DD1FF" stop-opacity="0.47"/>
<stop offset="1" stop-color="#0CA9FF" stop-opacity="0.38"/>
</linearGradient>
<linearGradient id="paint5_linear_80_58" x1="40.568" y1="46.7373" x2="40.568" y2="44.2657" gradientUnits="userSpaceOnUse">
<stop stop-color="#7DD1FF" stop-opacity="0.47"/>
<stop offset="1" stop-color="#0CA9FF" stop-opacity="0.38"/>
</linearGradient>
<clipPath id="clip0_80_58">
<rect width="2" height="2" fill="white" transform="translate(52 41)"/>
</clipPath>
<clipPath id="clip1_80_58">
<rect width="15" height="9" fill="white" transform="translate(33 38)"/>
</clipPath>
<clipPath id="clip2_80_58">
<rect width="15" height="9" fill="white" transform="matrix(-1 0 0 -1 48 50)"/>
</clipPath>
</defs>
</svg>
