<svg width="257" height="212" viewBox="0 0 257 212" fill="none" xmlns="http://www.w3.org/2000/svg">
<rect x="0.5" y="0.5" width="80.4558" height="75" rx="9.5" fill="#0E0E0F" fill-opacity="0.96" stroke="#2E2E32"/>
<rect width="81.4558" height="76" rx="10" fill="url(#paint0_radial_84_2)" fill-opacity="0.24"/>
<rect x="11.5" y="14.9004" width="58.379" height="46.2" rx="9.5" fill="#181818" stroke="#232325"/>
<rect x="20.4423" y="23.1" width="40.8" height="6.2" rx="0.9" fill="#D9D9D9" fill-opacity="0.12" stroke="white" stroke-width="0.2"/>
<rect x="50.3423" y="25" width="9" height="3" rx="1" fill="url(#paint1_linear_84_2)"/>
<rect x="14.4423" y="36.1" width="26.4444" height="6.2" rx="0.9" fill="#2F2F2F" stroke="white" stroke-width="0.2"/>
<ellipse cx="17.3872" cy="39.2004" rx="0.761269" ry="0.8" fill="#CCEDFF"/>
<ellipse cx="22.7161" cy="39.2004" rx="0.761269" ry="0.8" fill="#CCEDFF"/>
<ellipse cx="28.045" cy="39.2004" rx="0.761269" ry="0.8" fill="#CCEDFF"/>
<ellipse cx="33.3738" cy="39.2004" rx="0.761269" ry="0.8" fill="#CCEDFF"/>
<ellipse cx="38.7027" cy="39.2004" rx="0.761269" ry="0.8" fill="#CCEDFF"/>
<rect x="11.3423" y="14" width="59" height="48" rx="10" fill="url(#paint2_radial_84_2)" fill-opacity="0.24"/>
<rect x="42" y="45" width="22" height="12" rx="2" fill="url(#paint3_linear_84_2)"/>
<g clip-path="url(#clip0_84_2)">
<path d="M46 49C46.5525 49 47 48.5525 47 48C47 47.4475 46.5525 47 46 47C45.4475 47 45 47.4475 45 48C45 48.5525 45.4475 49 46 49ZM46 49.5C45.3325 49.5 44 49.835 44 50.5V50.75C44 50.8875 44.1125 51 44.25 51H47.75C47.8875 51 48 50.8875 48 50.75V50.5C48 49.835 46.6675 49.5 46 49.5Z" fill="black"/>
</g>
<rect x="50" y="48" width="11" height="2" fill="#262626"/>
<rect x="44" y="52" width="17" height="2" rx="1" fill="#262626"/>
<rect x="175.5" y="64.5" width="80.4558" height="75" rx="9.5" fill="#0E0E0F" fill-opacity="0.96" stroke="#2E2E32"/>
<rect x="175" y="64" width="81.4558" height="76" rx="10" fill="url(#paint4_radial_84_2)" fill-opacity="0.24"/>
<rect x="186.5" y="78.5" width="58.379" height="46.2" rx="9.5" fill="#181818" stroke="#232325"/>
<path d="M202.333 105.5C202.333 104.596 200.807 103.833 199 103.833C197.193 103.833 195.667 104.596 195.667 105.5V106.333C195.667 107.236 197.193 108 199 108C200.807 108 202.333 107.236 202.333 106.333V105.5ZM199 110.916C197.193 110.916 195.667 110.153 195.667 109.25V110.5C195.667 111.403 197.193 112.166 199 112.166C200.807 112.166 202.333 111.403 202.333 110.5V109.25C202.333 110.153 200.807 110.916 199 110.916Z" fill="url(#paint5_linear_84_2)"/>
<path d="M202.333 107.167C202.333 108.07 200.807 108.834 199 108.834C197.193 108.834 195.667 108.07 195.667 107.167V108.417C195.667 109.32 197.193 110.084 199 110.084C200.807 110.084 202.333 109.32 202.333 108.417V107.167Z" fill="url(#paint6_linear_84_2)"/>
<path d="M199.024 103C199.024 103 198.971 94.0616 199.024 92L211 92.0007" stroke="#38383C" stroke-width="0.5"/>
<path d="M221.075 92.0208C221.075 92.0208 230.014 92.039 232.075 92.1L232.076 103" stroke="#38383C" stroke-width="0.5"/>
<rect x="226" y="104" width="11" height="7" rx="1" fill="url(#paint7_linear_84_2)"/>
<g clip-path="url(#clip1_84_2)">
<path d="M228 106C228.184 106 228.333 105.851 228.333 105.666C228.333 105.482 228.184 105.333 228 105.333C227.816 105.333 227.667 105.482 227.667 105.666C227.667 105.851 227.816 106 228 106ZM228 106.166C227.777 106.166 227.333 106.278 227.333 106.5V106.583C227.333 106.629 227.371 106.666 227.417 106.666H228.583C228.629 106.666 228.667 106.629 228.667 106.583V106.5C228.667 106.278 228.222 106.166 228 106.166Z" fill="black"/>
</g>
<rect x="230" y="106" width="4" height="1" fill="#262626"/>
<rect x="227" y="108.083" width="8.5" height="1.16667" rx="0.583333" fill="#262626"/>
<path d="M211.667 89.625C211.667 89.4187 211.854 89.25 212.083 89.25H218.75C218.979 89.25 219.167 89.0813 219.167 88.875C219.167 88.6687 218.979 88.5 218.75 88.5H211.667C211.208 88.5 210.833 88.8375 210.833 89.25V93.375H210.625C210.279 93.375 210 93.6262 210 93.9375C210 94.2488 210.279 94.5 210.625 94.5H215.208C215.554 94.5 215.833 94.2488 215.833 93.9375C215.833 93.6262 215.554 93.375 215.208 93.375H211.667V89.625ZM219.583 90H217.083C216.854 90 216.667 90.1688 216.667 90.375V94.125C216.667 94.3313 216.854 94.5 217.083 94.5H219.583C219.812 94.5 220 94.3313 220 94.125V90.375C220 90.1688 219.812 90 219.583 90ZM219.167 93.375H217.5V90.75H219.167V93.375Z" fill="#797982"/>
<g clip-path="url(#clip2_84_2)">
<path d="M218.006 106.125H211.125C210.781 106.125 210.5 106.294 210.5 106.5C210.5 106.706 210.781 106.875 211.125 106.875H218.006V107.546C218.006 107.715 218.344 107.797 218.538 107.677L220.275 106.631C220.394 106.556 220.394 106.44 220.275 106.365L218.538 105.319C218.344 105.199 218.006 105.285 218.006 105.45V106.125Z" fill="url(#paint8_linear_84_2)"/>
</g>
<g clip-path="url(#clip3_84_2)">
<path d="M212.994 109.875H219.875C220.219 109.875 220.5 109.706 220.5 109.5C220.5 109.294 220.219 109.125 219.875 109.125H212.994V108.454C212.994 108.285 212.656 108.203 212.462 108.323L210.725 109.369C210.606 109.444 210.606 109.56 210.725 109.635L212.462 110.681C212.656 110.801 212.994 110.715 212.994 110.55V109.875Z" fill="url(#paint9_linear_84_2)"/>
</g>
<rect x="40.5" y="136.5" width="80.4558" height="75" rx="9.5" fill="#0E0E0F" fill-opacity="0.96" stroke="#2E2E32"/>
<rect x="40" y="136" width="81.4558" height="76" rx="10" fill="url(#paint10_radial_84_2)" fill-opacity="0.24"/>
<rect x="51.1577" y="150.9" width="58.379" height="46.2" rx="9.5" fill="#181818" stroke="#232325"/>
<rect x="59.25" y="162.25" width="37.5" height="22.5" rx="4.75" fill="#262626" stroke="#3C3C3C" stroke-width="0.5"/>
<g clip-path="url(#clip4_84_2)">
<path d="M67.5 173.889C66.25 173.889 65.1875 173.65 64.3125 173.171C63.4375 172.692 63 172.117 63 171.444C63 170.772 63.4375 170.197 64.3125 169.718C65.1875 169.239 66.25 169 67.5 169C68.75 169 69.8125 169.239 70.6875 169.718C71.5625 170.197 72 170.772 72 171.444C72 172.117 71.5625 172.692 70.6875 173.171C69.8125 173.65 68.75 173.889 67.5 173.889ZM67.5 176.944C66.25 176.944 65.1875 176.705 64.3125 176.226C63.4375 175.748 63 175.172 63 174.5V172.972C63 173.42 63.1708 173.8 63.5125 174.111C63.8542 174.421 64.2625 174.673 64.7375 174.867C65.2125 175.06 65.7063 175.2 66.219 175.286C66.7313 175.373 67.1583 175.417 67.5 175.417C67.8417 175.417 68.2687 175.373 68.781 175.286C69.2937 175.2 69.7875 175.06 70.2625 174.867C70.7375 174.673 71.1458 174.421 71.4875 174.111C71.8292 173.8 72 173.42 72 172.972V174.5C72 175.172 71.5625 175.748 70.6875 176.226C69.8125 176.705 68.75 176.944 67.5 176.944ZM67.5 180C66.25 180 65.1875 179.761 64.3125 179.282C63.4375 178.803 63 178.228 63 177.556V176.028C63 176.476 63.1708 176.855 63.5125 177.166C63.8542 177.477 64.2625 177.729 64.7375 177.922C65.2125 178.116 65.7063 178.256 66.219 178.343C66.7313 178.429 67.1583 178.472 67.5 178.472C67.8417 178.472 68.2687 178.429 68.781 178.343C69.2937 178.256 69.7875 178.116 70.2625 177.922C70.7375 177.729 71.1458 177.477 71.4875 177.166C71.8292 176.855 72 176.476 72 176.028V177.556C72 178.228 71.5625 178.803 70.6875 179.282C69.8125 179.761 68.75 180 67.5 180Z" fill="#CCEDFF"/>
</g>
<line x1="75.05" y1="166" x2="75.05" y2="182" stroke="#CCEDFF" stroke-width="0.1"/>
<line x1="81.05" y1="166" x2="81.05" y2="182" stroke="#CCEDFF" stroke-width="0.1"/>
<line x1="87.05" y1="166" x2="87.05" y2="182" stroke="#CCEDFF" stroke-width="0.1"/>
<line x1="93.05" y1="166" x2="93.05" y2="182" stroke="#CCEDFF" stroke-width="0.1"/>
<line x1="75" y1="165.95" x2="93" y2="165.95" stroke="#CCEDFF" stroke-width="0.1"/>
<line x1="75" y1="169.95" x2="93" y2="169.95" stroke="#CCEDFF" stroke-width="0.1"/>
<line x1="75" y1="173.95" x2="93" y2="173.95" stroke="#CCEDFF" stroke-width="0.1"/>
<line x1="75" y1="177.95" x2="93" y2="177.95" stroke="#CCEDFF" stroke-width="0.1"/>
<line x1="75" y1="181.95" x2="93" y2="181.95" stroke="#CCEDFF" stroke-width="0.1"/>
<path d="M175 106.5L40 106" stroke="#2E2E32"/>
<line x1="40.5002" y1="106" x2="40.5002" y2="76" stroke="#2E2E32"/>
<line x1="80.5" y1="136" x2="80.5" y2="106" stroke="#2E2E32"/>
<defs>
<radialGradient id="paint0_radial_84_2" cx="0" cy="0" r="1" gradientUnits="userSpaceOnUse" gradientTransform="translate(40.3473) rotate(90) scale(31.6 33.8685)">
<stop stop-color="#878787"/>
<stop offset="1" stop-color="#212121"/>
</radialGradient>
<linearGradient id="paint1_linear_84_2" x1="50.7514" y1="25.25" x2="56.2207" y2="30.4314" gradientUnits="userSpaceOnUse">
<stop stop-color="#7DD1FF" stop-opacity="0.42"/>
<stop offset="1" stop-color="#0CA9FF" stop-opacity="0.38"/>
</linearGradient>
<radialGradient id="paint2_radial_84_2" cx="0" cy="0" r="1" gradientUnits="userSpaceOnUse" gradientTransform="translate(40.5666 14) rotate(90) scale(19.9579 24.5316)">
<stop stop-color="#878787"/>
<stop offset="1" stop-color="#212121"/>
</radialGradient>
<linearGradient id="paint3_linear_84_2" x1="43" y1="46" x2="62" y2="57" gradientUnits="userSpaceOnUse">
<stop stop-color="#7DD1FF" stop-opacity="0.42"/>
<stop offset="1" stop-color="#0CA9FF" stop-opacity="0.38"/>
</linearGradient>
<radialGradient id="paint4_radial_84_2" cx="0" cy="0" r="1" gradientUnits="userSpaceOnUse" gradientTransform="translate(215.347 64) rotate(90) scale(31.6 33.8685)">
<stop stop-color="#878787"/>
<stop offset="1" stop-color="#212121"/>
</radialGradient>
<linearGradient id="paint5_linear_84_2" x1="199" y1="103.833" x2="199" y2="112.166" gradientUnits="userSpaceOnUse">
<stop stop-color="#CCEDF7" stop-opacity="0.47"/>
<stop offset="1" stop-color="#0CA9FF" stop-opacity="0.38"/>
</linearGradient>
<linearGradient id="paint6_linear_84_2" x1="199" y1="107.167" x2="199" y2="110.084" gradientUnits="userSpaceOnUse">
<stop stop-color="#CCEDF7" stop-opacity="0.47"/>
<stop offset="1" stop-color="#0CA9FF" stop-opacity="0.38"/>
</linearGradient>
<linearGradient id="paint7_linear_84_2" x1="226.5" y1="104.583" x2="236.678" y2="109.634" gradientUnits="userSpaceOnUse">
<stop stop-color="#7DD1FF" stop-opacity="0.42"/>
<stop offset="1" stop-color="#0CA9FF" stop-opacity="0.38"/>
</linearGradient>
<linearGradient id="paint8_linear_84_2" x1="215.432" y1="105.263" x2="215.432" y2="107.734" gradientUnits="userSpaceOnUse">
<stop stop-color="#7DD1FF" stop-opacity="0.47"/>
<stop offset="1" stop-color="#0CA9FF" stop-opacity="0.38"/>
</linearGradient>
<linearGradient id="paint9_linear_84_2" x1="215.568" y1="110.737" x2="215.568" y2="108.266" gradientUnits="userSpaceOnUse">
<stop stop-color="#7DD1FF" stop-opacity="0.47"/>
<stop offset="1" stop-color="#0CA9FF" stop-opacity="0.38"/>
</linearGradient>
<radialGradient id="paint10_radial_84_2" cx="0" cy="0" r="1" gradientUnits="userSpaceOnUse" gradientTransform="translate(80.3473 136) rotate(90) scale(31.6 33.8685)">
<stop stop-color="#878787"/>
<stop offset="1" stop-color="#212121"/>
</radialGradient>
<clipPath id="clip0_84_2">
<rect width="6" height="6" fill="white" transform="translate(43 46)"/>
</clipPath>
<clipPath id="clip1_84_2">
<rect width="2" height="2" fill="white" transform="translate(227 105)"/>
</clipPath>
<clipPath id="clip2_84_2">
<rect width="15" height="9" fill="white" transform="translate(208 102)"/>
</clipPath>
<clipPath id="clip3_84_2">
<rect width="15" height="9" fill="white" transform="matrix(-1 0 0 -1 223 114)"/>
</clipPath>
<clipPath id="clip4_84_2">
<rect width="9" height="11" fill="white" transform="translate(63 169)"/>
</clipPath>
</defs>
</svg>
