<svg width="82" height="76" viewBox="0 0 82 76" fill="none" xmlns="http://www.w3.org/2000/svg">
<rect x="0.5" y="0.5" width="80.4558" height="75" rx="9.5" fill="#0E0E0F" fill-opacity="0.96" stroke="#2E2E32"/>
<rect width="81.4558" height="76" rx="10" fill="url(#paint0_radial_80_152)" fill-opacity="0.24"/>
<rect x="11.5" y="14.5" width="58.379" height="46.2" rx="9.5" fill="#181818" stroke="#232325"/>
<rect x="23" y="24" width="22" height="12" rx="2" fill="url(#paint1_linear_80_152)"/>
<g clip-path="url(#clip0_80_152)">
<path d="M27 28C27.5525 28 28 27.5525 28 27C28 26.4475 27.5525 26 27 26C26.4475 26 26 26.4475 26 27C26 27.5525 26.4475 28 27 28ZM27 28.5C26.3325 28.5 25 28.835 25 29.5V29.75C25 29.8875 25.1125 30 25.25 30H28.75C28.8875 30 29 29.8875 29 29.75V29.5C29 28.835 27.6675 28.5 27 28.5Z" fill="black"/>
</g>
<rect x="31" y="27" width="11" height="2" fill="#262626"/>
<rect x="25" y="31" width="17" height="2" rx="1" fill="#262626"/>
<rect x="41" y="42" width="22" height="12" rx="2" fill="url(#paint2_linear_80_152)"/>
<g clip-path="url(#clip1_80_152)">
<path d="M45 46C45.5525 46 46 45.5525 46 45C46 44.4475 45.5525 44 45 44C44.4475 44 44 44.4475 44 45C44 45.5525 44.4475 46 45 46ZM45 46.5C44.3325 46.5 43 46.835 43 47.5V47.75C43 47.8875 43.1125 48 43.25 48H46.75C46.8875 48 47 47.8875 47 47.75V47.5C47 46.835 45.6675 46.5 45 46.5Z" fill="black"/>
</g>
<rect x="49" y="45" width="11" height="2" fill="#262626"/>
<rect x="43" y="49" width="17" height="2" rx="1" fill="#262626"/>
<line x1="33.25" y1="36" x2="33.25" y2="48" stroke="#303033" stroke-width="0.5"/>
<line x1="33" y1="47.75" x2="41" y2="47.75" stroke="#2E2E32" stroke-width="0.5"/>
<line x1="45" y1="29.75" x2="52" y2="29.75" stroke="#303033" stroke-width="0.5"/>
<line x1="52.25" y1="30" x2="52.25" y2="42" stroke="#303033" stroke-width="0.5"/>
<defs>
<radialGradient id="paint0_radial_80_152" cx="0" cy="0" r="1" gradientUnits="userSpaceOnUse" gradientTransform="translate(40.3473) rotate(90) scale(31.6 33.8685)">
<stop stop-color="#878787"/>
<stop offset="1" stop-color="#212121"/>
</radialGradient>
<linearGradient id="paint1_linear_80_152" x1="24" y1="25" x2="43" y2="36" gradientUnits="userSpaceOnUse">
<stop stop-color="#7DD1FF" stop-opacity="0.42"/>
<stop offset="1" stop-color="#0CA9FF" stop-opacity="0.38"/>
</linearGradient>
<linearGradient id="paint2_linear_80_152" x1="42" y1="43" x2="61" y2="54" gradientUnits="userSpaceOnUse">
<stop stop-color="#7DD1FF" stop-opacity="0.42"/>
<stop offset="1" stop-color="#0CA9FF" stop-opacity="0.38"/>
</linearGradient>
<clipPath id="clip0_80_152">
<rect width="6" height="6" fill="white" transform="translate(24 25)"/>
</clipPath>
<clipPath id="clip1_80_152">
<rect width="6" height="6" fill="white" transform="translate(42 43)"/>
</clipPath>
</defs>
</svg>
